<mxfile host="app.diagrams.net" modified="2023-11-03T11:49:20.063Z" agent="Mozilla/5.0 (X11; Linux x86_64; rv:109.0) Gecko/20100101 Firefox/119.0" etag="g6Kn0AnwljdFAD13SVwn" version="22.0.8" type="device">
  <diagram name="Page-1" id="UfZY5-IjTz3E-i7WHWPm">
    <mxGraphModel dx="1402" dy="708" grid="1" gridSize="10" guides="1" tooltips="1" connect="1" arrows="1" fold="1" page="1" pageScale="1" pageWidth="850" pageHeight="1100" math="0" shadow="0">
      <root>
        <mxCell id="0" />
        <mxCell id="1" parent="0" />
        <mxCell id="ICQeElwAPuifATmVC5Zf-1" value="&lt;u&gt;ENo&lt;/u&gt;" style="ellipse;whiteSpace=wrap;html=1;" vertex="1" parent="1">
          <mxGeometry x="40" y="320" width="120" height="80" as="geometry" />
        </mxCell>
        <mxCell id="ICQeElwAPuifATmVC5Zf-5" value="" style="edgeStyle=orthogonalEdgeStyle;rounded=0;orthogonalLoop=1;jettySize=auto;html=1;strokeColor=default;endArrow=none;endFill=0;" edge="1" parent="1" source="ICQeElwAPuifATmVC5Zf-2" target="ICQeElwAPuifATmVC5Zf-3">
          <mxGeometry relative="1" as="geometry" />
        </mxCell>
        <mxCell id="ICQeElwAPuifATmVC5Zf-8" style="rounded=0;orthogonalLoop=1;jettySize=auto;html=1;exitX=0;exitY=0.5;exitDx=0;exitDy=0;entryX=1;entryY=0.5;entryDx=0;entryDy=0;endArrow=none;endFill=0;" edge="1" parent="1" source="ICQeElwAPuifATmVC5Zf-2" target="ICQeElwAPuifATmVC5Zf-4">
          <mxGeometry relative="1" as="geometry" />
        </mxCell>
        <mxCell id="ICQeElwAPuifATmVC5Zf-9" style="edgeStyle=orthogonalEdgeStyle;rounded=0;orthogonalLoop=1;jettySize=auto;html=1;exitX=0.5;exitY=0;exitDx=0;exitDy=0;dashed=1;endArrow=none;endFill=0;" edge="1" parent="1" source="ICQeElwAPuifATmVC5Zf-2">
          <mxGeometry relative="1" as="geometry">
            <mxPoint x="300" y="340" as="targetPoint" />
          </mxGeometry>
        </mxCell>
        <mxCell id="ICQeElwAPuifATmVC5Zf-10" style="edgeStyle=orthogonalEdgeStyle;rounded=0;orthogonalLoop=1;jettySize=auto;html=1;exitX=1;exitY=0.5;exitDx=0;exitDy=0;endArrow=none;endFill=0;" edge="1" parent="1" source="ICQeElwAPuifATmVC5Zf-2" target="ICQeElwAPuifATmVC5Zf-11">
          <mxGeometry relative="1" as="geometry">
            <mxPoint x="440" y="460" as="targetPoint" />
          </mxGeometry>
        </mxCell>
        <mxCell id="ICQeElwAPuifATmVC5Zf-2" value="&lt;div&gt;Employee&lt;/div&gt;" style="rounded=0;whiteSpace=wrap;html=1;" vertex="1" parent="1">
          <mxGeometry x="240" y="430" width="120" height="60" as="geometry" />
        </mxCell>
        <mxCell id="ICQeElwAPuifATmVC5Zf-3" value="EName" style="ellipse;whiteSpace=wrap;html=1;" vertex="1" parent="1">
          <mxGeometry x="40" y="420" width="120" height="80" as="geometry" />
        </mxCell>
        <mxCell id="ICQeElwAPuifATmVC5Zf-4" value="ESalary" style="ellipse;whiteSpace=wrap;html=1;" vertex="1" parent="1">
          <mxGeometry x="40" y="520" width="120" height="80" as="geometry" />
        </mxCell>
        <mxCell id="ICQeElwAPuifATmVC5Zf-6" style="rounded=0;orthogonalLoop=1;jettySize=auto;html=1;entryX=0.992;entryY=0.675;entryDx=0;entryDy=0;entryPerimeter=0;endArrow=none;endFill=0;" edge="1" parent="1" target="ICQeElwAPuifATmVC5Zf-1">
          <mxGeometry relative="1" as="geometry">
            <mxPoint x="240" y="460" as="sourcePoint" />
          </mxGeometry>
        </mxCell>
        <mxCell id="ICQeElwAPuifATmVC5Zf-17" style="edgeStyle=orthogonalEdgeStyle;rounded=0;orthogonalLoop=1;jettySize=auto;html=1;exitX=0.5;exitY=0;exitDx=0;exitDy=0;entryX=0.5;entryY=1;entryDx=0;entryDy=0;endArrow=none;endFill=0;" edge="1" parent="1" source="ICQeElwAPuifATmVC5Zf-11" target="ICQeElwAPuifATmVC5Zf-14">
          <mxGeometry relative="1" as="geometry" />
        </mxCell>
        <mxCell id="ICQeElwAPuifATmVC5Zf-11" value="sits in" style="rhombus;whiteSpace=wrap;html=1;" vertex="1" parent="1">
          <mxGeometry x="410" y="420" width="80" height="80" as="geometry" />
        </mxCell>
        <mxCell id="ICQeElwAPuifATmVC5Zf-13" value="(1,1)" style="text;html=1;strokeColor=none;fillColor=none;align=center;verticalAlign=middle;whiteSpace=wrap;rounded=0;" vertex="1" parent="1">
          <mxGeometry x="360" y="430" width="60" height="30" as="geometry" />
        </mxCell>
        <mxCell id="ICQeElwAPuifATmVC5Zf-16" style="edgeStyle=orthogonalEdgeStyle;rounded=0;orthogonalLoop=1;jettySize=auto;html=1;exitX=0.5;exitY=0;exitDx=0;exitDy=0;entryX=0.5;entryY=1;entryDx=0;entryDy=0;" edge="1" parent="1" source="ICQeElwAPuifATmVC5Zf-14" target="ICQeElwAPuifATmVC5Zf-15">
          <mxGeometry relative="1" as="geometry" />
        </mxCell>
        <mxCell id="ICQeElwAPuifATmVC5Zf-14" value="Office" style="rounded=0;whiteSpace=wrap;html=1;" vertex="1" parent="1">
          <mxGeometry x="390" y="300" width="120" height="60" as="geometry" />
        </mxCell>
        <mxCell id="ICQeElwAPuifATmVC5Zf-15" value="Building" style="rounded=0;whiteSpace=wrap;html=1;" vertex="1" parent="1">
          <mxGeometry x="390" y="180" width="120" height="60" as="geometry" />
        </mxCell>
        <mxCell id="ICQeElwAPuifATmVC5Zf-18" value="(1,*)" style="text;html=1;strokeColor=none;fillColor=none;align=center;verticalAlign=middle;whiteSpace=wrap;rounded=0;" vertex="1" parent="1">
          <mxGeometry x="450" y="380" width="60" height="30" as="geometry" />
        </mxCell>
        <mxCell id="ICQeElwAPuifATmVC5Zf-22" style="edgeStyle=orthogonalEdgeStyle;rounded=0;orthogonalLoop=1;jettySize=auto;html=1;exitX=0;exitY=0.5;exitDx=0;exitDy=0;entryX=1;entryY=0.5;entryDx=0;entryDy=0;endArrow=none;endFill=0;" edge="1" parent="1" source="ICQeElwAPuifATmVC5Zf-20" target="ICQeElwAPuifATmVC5Zf-15">
          <mxGeometry relative="1" as="geometry" />
        </mxCell>
        <mxCell id="ICQeElwAPuifATmVC5Zf-20" value="&lt;u&gt;BuildingID&lt;/u&gt;" style="ellipse;whiteSpace=wrap;html=1;" vertex="1" parent="1">
          <mxGeometry x="580" y="170" width="120" height="80" as="geometry" />
        </mxCell>
        <mxCell id="ICQeElwAPuifATmVC5Zf-21" value="&lt;u&gt;OfficeNo&lt;/u&gt;" style="ellipse;whiteSpace=wrap;html=1;" vertex="1" parent="1">
          <mxGeometry x="580" y="290" width="120" height="80" as="geometry" />
        </mxCell>
        <mxCell id="ICQeElwAPuifATmVC5Zf-23" style="edgeStyle=orthogonalEdgeStyle;rounded=0;orthogonalLoop=1;jettySize=auto;html=1;exitX=0;exitY=0.5;exitDx=0;exitDy=0;entryX=1;entryY=0.5;entryDx=0;entryDy=0;endArrow=none;endFill=0;" edge="1" parent="1" source="ICQeElwAPuifATmVC5Zf-21" target="ICQeElwAPuifATmVC5Zf-14">
          <mxGeometry relative="1" as="geometry">
            <mxPoint x="590" y="220" as="sourcePoint" />
            <mxPoint x="520" y="220" as="targetPoint" />
          </mxGeometry>
        </mxCell>
      </root>
    </mxGraphModel>
  </diagram>
</mxfile>
